<svg width="199" height="40" viewBox="0 0 199 40" fill="none" xmlns="http://www.w3.org/2000/svg">
<path d="M7.53551 8.13929V16.173H16.4839C18.0824 16.173 19.376 15.8764 20.3648 15.2831C21.37 14.6734 21.8726 13.6022 21.8726 12.0696C21.8726 10.3723 21.2135 9.25165 19.8951 8.70783C18.758 8.3288 17.3078 8.13929 15.5445 8.13929H7.53551ZM7.53551 22.2045V31.9191H16.4839C18.0824 31.9191 19.3266 31.7049 20.2165 31.2764C21.8314 30.4854 22.6389 28.9693 22.6389 26.7281C22.6389 24.833 21.8562 23.5311 20.2906 22.8225C19.4172 22.427 18.1895 22.221 16.6075 22.2045H7.53551ZM17.967 1.81117C22.4329 1.87709 25.597 3.17073 27.4592 5.69209C28.5798 7.24116 29.1401 9.09509 29.1401 11.2539C29.1401 13.4786 28.5798 15.2667 27.4592 16.618C26.833 17.376 25.9101 18.0682 24.6906 18.6944C26.5528 19.37 27.9536 20.4412 28.8929 21.9079C29.8487 23.3745 30.3266 25.1543 30.3266 27.2472C30.3266 29.406 29.7828 31.3424 28.6951 33.0562C28.003 34.1933 27.1378 35.1491 26.0996 35.9237C24.9296 36.8135 23.5453 37.4233 21.9468 37.7529C20.3648 38.0825 18.6427 38.2473 16.7805 38.2473H0.268066V1.81117H17.967Z" fill="black"/>
<path d="M46.5012 33.2779C48.5611 33.2779 50.1432 32.5445 51.2473 31.0779C52.3514 29.6112 52.9035 27.5265 52.9035 24.8239C52.9035 22.1213 52.3514 20.0449 51.2473 18.5947C50.1432 17.128 48.5611 16.3947 46.5012 16.3947C44.4413 16.3947 42.851 17.128 41.7304 18.5947C40.6263 20.0449 40.0742 22.1213 40.0742 24.8239C40.0742 27.5265 40.6263 29.6112 41.7304 31.0779C42.851 32.5445 44.4413 33.2779 46.5012 33.2779ZM60.2945 24.8239C60.2945 28.779 59.1574 32.1655 56.8832 34.9835C54.6091 37.785 51.1566 39.1858 46.5259 39.1858C41.8952 39.1858 38.4427 37.785 36.1686 34.9835C33.8944 32.1655 32.7573 28.779 32.7573 24.8239C32.7573 20.9348 33.8944 17.5647 36.1686 14.7138C38.4427 11.8628 41.8952 10.4373 46.5259 10.4373C51.1566 10.4373 54.6091 11.8628 56.8832 14.7138C59.1574 17.5647 60.2945 20.9348 60.2945 24.8239Z" fill="black"/>
<path d="M75.2473 23.6868C77.3072 23.6868 78.8892 22.9535 79.9934 21.4868C81.0975 20.0202 81.6496 17.9355 81.6496 15.2329C81.6496 12.5303 81.0975 10.4538 79.9934 9.00365C78.8892 7.53697 77.3072 6.80364 75.2473 6.80364C73.1874 6.80364 71.5971 7.53697 70.4765 9.00365C69.3724 10.4538 68.8203 12.5303 68.8203 15.2329C68.8203 17.9355 69.3724 20.0202 70.4765 21.4868C71.5971 22.9535 73.1874 23.6868 75.2473 23.6868ZM89.0406 15.2329C89.0406 19.188 87.9035 22.5745 85.6293 25.3925C83.3552 28.194 79.9027 29.5947 75.272 29.5947C70.6413 29.5947 67.1888 28.194 64.9147 25.3925C62.6405 22.5745 61.5034 19.188 61.5034 15.2329C61.5034 11.3437 62.6405 7.97368 64.9147 5.12273C67.1888 2.27179 70.6413 0.846313 75.272 0.846313C79.9027 0.846313 83.3552 2.27179 85.6293 5.12273C87.9035 7.97368 89.0406 11.3437 89.0406 15.2329Z" fill="url(#paint0_linear)"/>
<path d="M122.754 10.6846C123.941 10.6846 125.111 10.9153 126.264 11.3768C127.418 11.8382 128.464 12.6457 129.403 13.7992C130.162 14.7386 130.672 15.8921 130.936 17.2599C131.101 18.1663 131.183 19.4929 131.183 21.2397L131.134 38.2218H123.916V21.0667C123.916 20.0449 123.751 19.2045 123.421 18.5453C122.795 17.2929 121.642 16.6667 119.961 16.6667C118.016 16.6667 116.673 17.4742 115.932 19.0891C115.553 19.9461 115.363 20.976 115.363 22.179V38.2218H108.269V22.179C108.269 20.5805 108.104 19.4187 107.774 18.6936C107.181 17.3918 106.019 16.7408 104.289 16.7408C102.278 16.7408 100.927 17.3918 100.235 18.6936C99.8558 19.4352 99.6663 20.5393 99.6663 22.006V38.2218H92.5225V11.3273H99.3697V15.2577C100.243 13.8569 101.067 12.8599 101.842 12.2666C103.209 11.212 104.981 10.6846 107.156 10.6846C109.216 10.6846 110.881 11.1378 112.149 12.0442C113.171 12.8846 113.946 13.964 114.473 15.2824C115.396 13.7004 116.541 12.5386 117.909 11.797C119.359 11.0554 120.974 10.6846 122.754 10.6846Z" fill="black"/>
<path d="M160.55 13.1565C159.973 10.6681 158.564 8.9295 156.323 7.94074C155.07 7.39691 153.678 7.125 152.145 7.125C149.212 7.125 146.798 8.23737 144.902 10.4621C143.024 12.6703 142.084 15.9992 142.084 20.4486C142.084 24.9311 143.106 28.1034 145.15 29.9655C147.193 31.8277 149.517 32.7588 152.12 32.7588C154.675 32.7588 156.768 32.0255 158.399 30.5588C160.031 29.0756 161.036 27.1393 161.415 24.7498H152.986V18.6689H168.163V38.2217H163.12L162.354 33.6734C160.887 35.4038 159.569 36.6232 158.399 37.3319C156.389 38.5678 153.917 39.1858 150.983 39.1858C146.155 39.1858 142.2 37.5131 139.118 34.1678C135.905 30.806 134.298 26.2082 134.298 20.3745C134.298 14.4748 135.921 9.74524 139.168 6.18567C142.414 2.62611 146.707 0.846329 152.046 0.846329C156.677 0.846329 160.393 2.02461 163.195 4.38117C166.013 6.72126 167.628 9.64636 168.04 13.1565H160.55Z" fill="black"/>
<path d="M184.759 33.2779C186.818 33.2779 188.4 32.5445 189.505 31.0779C190.609 29.6112 191.161 27.5265 191.161 24.8239C191.161 22.1213 190.609 20.0449 189.505 18.5947C188.4 17.128 186.818 16.3947 184.759 16.3947C182.699 16.3947 181.108 17.128 179.988 18.5947C178.884 20.0449 178.332 22.1213 178.332 24.8239C178.332 27.5265 178.884 29.6112 179.988 31.0779C181.108 32.5445 182.699 33.2779 184.759 33.2779ZM198.552 24.8239C198.552 28.779 197.415 32.1655 195.141 34.9835C192.866 37.785 189.414 39.1858 184.783 39.1858C180.153 39.1858 176.7 37.785 174.426 34.9835C172.152 32.1655 171.015 28.779 171.015 24.8239C171.015 20.9348 172.152 17.5647 174.426 14.7138C176.7 11.8628 180.153 10.4373 184.783 10.4373C189.414 10.4373 192.866 11.8628 195.141 14.7138C197.415 17.5647 198.552 20.9348 198.552 24.8239Z" fill="black"/>
<defs>
<linearGradient id="paint0_linear" x1="89.0406" y1="0.588195" x2="62.9185" y2="30.5695" gradientUnits="userSpaceOnUse">
<stop stop-color="#9FA6F9"/>
<stop offset="1" stop-color="#79FAFD"/>
</linearGradient>
</defs>
</svg>
